<svg width="13" height="10" viewBox="0 0 13 10" fill="none" xmlns="http://www.w3.org/2000/svg">
<path d="M11.875 0H0.625C0.455729 0 0.309245 0.061849 0.185547 0.185547C0.061849 0.309245 0 0.455729 0 0.625V1.25C0 1.41927 0.061849 1.56576 0.185547 1.68945C0.309245 1.81315 0.455729 1.875 0.625 1.875H11.875C12.0443 1.875 12.1908 1.81315 12.3145 1.68945C12.4382 1.56576 12.5 1.41927 12.5 1.25V0.625C12.5 0.455729 12.4382 0.309245 12.3145 0.185547C12.1908 0.061849 12.0443 0 11.875 0ZM11.875 3.75H0.625C0.455729 3.75 0.309245 3.81185 0.185547 3.93555C0.061849 4.05924 0 4.20573 0 4.375V5C0 5.16927 0.061849 5.31576 0.185547 5.43945C0.309245 5.56315 0.455729 5.625 0.625 5.625H11.875C12.0443 5.625 12.1908 5.56315 12.3145 5.43945C12.4382 5.31576 12.5 5.16927 12.5 5V4.375C12.5 4.20573 12.4382 4.05924 12.3145 3.93555C12.1908 3.81185 12.0443 3.75 11.875 3.75ZM11.875 7.5H0.625C0.455729 7.5 0.309245 7.56185 0.185547 7.68555C0.061849 7.80924 0 7.95573 0 8.125V8.75C0 8.91927 0.061849 9.06576 0.185547 9.18945C0.309245 9.31315 0.455729 9.375 0.625 9.375H11.875C12.0443 9.375 12.1908 9.31315 12.3145 9.18945C12.4382 9.06576 12.5 8.91927 12.5 8.75V8.125C12.5 7.95573 12.4382 7.80924 12.3145 7.68555C12.1908 7.56185 12.0443 7.5 11.875 7.5Z" fill="white" fill-opacity="0.65"/>
</svg>
