<svg width="52" height="55" viewBox="0 0 52 55" fill="none" xmlns="http://www.w3.org/2000/svg">
<path d="M43.6153 0.844364C43.1893 0.830769 42.7906 1.04374 42.573 1.41077L40.466 4.83639L31.5667 8.03093C31.0275 8.22577 30.7103 8.78769 30.8235 9.34947L34.0815 25.4989C30.4384 26.31 27.4387 28.8293 25.975 32.178H13.0973L9.17316 19.418H11.5748C12.8934 19.418 13.8268 18.4482 14.2165 17.2565C14.4385 17.0391 14.5608 16.74 14.5608 16.4319C14.5608 14.9093 13.3827 13.6089 11.8648 13.4639L4.35648 12.7343C4.1118 12.7072 3.87164 12.7072 3.63148 12.7343C1.98211 12.9201 0.640861 14.3384 0.640861 16.0649C0.640861 16.3774 0.7632 16.672 0.985238 16.8941C1.39305 18.2851 2.47602 19.418 3.99398 19.418H6.74448L10.6776 32.1961C7.03448 32.4091 4.12086 35.445 4.12086 39.138C4.12086 42.26 6.20071 44.9153 9.04637 45.7899L4.68274 51.898H1.80086C1.38398 51.8934 0.994305 52.1109 0.781333 52.4734C0.572889 52.8359 0.572889 53.28 0.781333 53.6424C0.994295 54.005 1.38398 54.2224 1.80086 54.218H5.25367H5.32617H8.76085C9.17774 54.2224 9.56746 54.005 9.78043 53.6424C9.98882 53.28 9.98882 52.8359 9.78043 52.4734C9.56746 52.1109 9.17774 51.8934 8.76085 51.898H7.53746L11.7107 46.0572C12.0596 46.0254 12.4584 45.9756 12.9704 45.9031C13.8177 45.7853 14.878 45.6131 16.0879 45.4092C18.503 45.0014 21.5027 44.4531 24.4707 43.8958C25.4087 43.7191 26.1473 43.5695 27.0626 43.3973C29.1515 46.4242 32.6496 48.418 36.6008 48.418C38.1415 48.418 39.605 48.1099 40.9508 47.5615L44.5623 51.898H43.5608C43.144 51.8934 42.7543 52.1109 42.5414 52.4734C42.3329 52.8359 42.3329 53.28 42.5414 53.6424C42.7543 54.005 43.144 54.2224 43.5608 54.218H46.8279C46.9819 54.2496 47.136 54.2496 47.29 54.218H50.5209C50.9377 54.2224 51.3275 54.005 51.5404 53.6424C51.7488 53.28 51.7488 52.8359 51.5404 52.4734C51.3275 52.1109 50.9377 51.8934 50.5209 51.898H47.5846L43.0488 46.4559C46.1527 44.367 48.2008 40.8281 48.2008 36.818C48.2008 30.4243 42.9945 25.218 36.6008 25.218C36.5329 25.218 36.4604 25.2224 36.3925 25.2224L33.2976 9.87514L41.635 6.87998C41.8798 6.78935 42.0927 6.6217 42.2287 6.39514L44.5487 2.62514C44.7707 2.27623 44.7888 1.83216 44.594 1.46514C44.4037 1.09811 44.0276 0.857958 43.6153 0.844364ZM4.10727 15.0408C4.1118 15.0408 4.11633 15.0408 4.12086 15.0453L11.6427 15.7749C11.9917 15.8065 12.2408 16.083 12.2408 16.4319C12.2408 16.817 11.9599 17.098 11.5748 17.098H7.7776C7.70963 17.0889 7.64613 17.0799 7.58274 17.0799C7.52382 17.0843 7.46949 17.0889 7.41057 17.098H3.99399C3.40947 17.098 2.96087 16.6493 2.96087 16.0649C2.96087 15.435 3.47742 14.9728 4.10727 15.0408ZM36.6008 27.538C41.7393 27.538 45.8808 31.6795 45.8808 36.818C45.8808 40.3161 43.9596 43.3474 41.114 44.9334C40.833 44.9606 40.5748 45.0874 40.3845 45.2914C39.229 45.8034 37.9511 46.098 36.6008 46.098C33.8006 46.098 31.3038 44.8564 29.6046 42.9034C30.5925 42.7085 31.7887 42.4865 32.6315 42.3143C33.7688 42.0878 34.7385 41.893 35.4726 41.7389C36.2021 41.5849 36.628 41.4988 36.9226 41.4127C37.9511 41.1181 38.9661 40.6831 39.7999 39.9491C40.6337 39.215 41.2408 38.1093 41.2408 36.818C41.2408 34.2669 39.1519 32.178 36.6008 32.178H28.5669C30.1665 29.4049 33.1571 27.538 36.6008 27.538ZM11.0809 34.498H11.9735C12.1593 34.5432 12.3496 34.5432 12.5354 34.498H36.6008C37.8968 34.498 38.9208 35.522 38.9208 36.818C38.9208 37.4523 38.7125 37.8149 38.2684 38.209C37.8198 38.6032 37.0993 38.9477 36.2791 39.1832C36.2475 39.1923 35.7127 39.3192 34.9923 39.4688C34.2764 39.6183 33.3111 39.8177 32.1784 40.0442C29.9173 40.4928 26.9946 41.0592 24.0403 41.6165C21.0858 42.1739 18.0953 42.7177 15.7027 43.1209C14.5065 43.3249 13.4598 43.4924 12.6487 43.6058C11.8829 43.7145 11.3391 43.7643 11.1669 43.7689C11.1443 43.7689 11.1217 43.7643 11.099 43.7643C11.0583 43.7643 11.0219 43.7643 10.9903 43.7689C10.9857 43.7689 10.9811 43.7689 10.9811 43.7689C8.45274 43.7145 6.44085 41.68 6.44085 39.138C6.44085 36.5642 8.50707 34.498 11.0809 34.498ZM11.0809 36.818C9.79854 36.818 8.76085 37.8557 8.76085 39.138C8.76085 40.4203 9.79854 41.458 11.0809 41.458C11.91 41.458 12.6714 41.0139 13.0882 40.298H19.2009C19.6177 40.3024 20.0075 40.085 20.2204 39.7224C20.4288 39.36 20.4288 38.9159 20.2204 38.5534C20.0075 38.1909 19.6177 37.9734 19.2009 37.978H13.0882C12.6758 37.262 11.91 36.818 11.0809 36.818Z" fill="#2B3990"/>
</svg>
