<svg width="30" height="30" viewBox="0 0 30 30" fill="none" xmlns="http://www.w3.org/2000/svg">
<path d="M14.4003 0.242188C12.7435 0.242188 11.4003 1.58533 11.4003 3.24221C11.4003 4.89903 12.7435 6.24221 14.4003 6.24221C16.0572 6.24221 17.4003 4.89903 17.4003 3.24221C17.4003 1.58533 16.0572 0.242188 14.4003 0.242188ZM10.8003 7.44221C9.6246 7.44366 8.55806 8.1317 8.07218 9.20235H8.06984L8.0581 9.23046C8.03637 9.28149 8.01604 9.33303 7.99715 9.38513L5.637 15.275V15.2773L5.60422 15.357L5.60656 15.3594C5.47153 15.7045 5.40161 16.0716 5.40029 16.4422C5.40048 17.6479 6.12237 18.7364 7.23313 19.2055L12.5979 21.8422L12.6003 27.7648C12.544 28.4123 13.0132 28.9869 13.6587 29.0612C14.3043 29.1354 14.8917 28.6823 14.9839 28.0391L16.1839 20.8391C16.2614 20.3735 16.0586 19.9057 15.6659 19.6437L11.705 16.2617L13.287 12.3055L15.6355 13.2992C16.0252 13.5078 16.4978 13.4852 16.8659 13.2406L20.4659 10.8406C20.8301 10.606 21.0396 10.1932 21.014 9.7608C20.9884 9.32829 20.7316 8.94322 20.3422 8.75318C19.9529 8.5632 19.4913 8.59781 19.1347 8.84374L19.048 8.90235L16.1136 10.5219L12.6167 8.05623H12.6144C12.093 7.65884 11.4559 7.44322 10.8003 7.44221ZM24.3074 8.6633C24.1202 8.63103 23.9226 8.63381 23.7261 8.67966L23.2315 8.79688C23.6311 10.1097 23.2579 11.5624 22.1839 12.5164C22.0627 12.6364 21.9232 12.7523 21.7948 12.8375L19.5401 14.3399L22.7136 27.9125C22.8972 28.6985 23.683 29.186 24.469 29.0024L28.2706 28.114C29.0578 27.9316 29.5464 27.1446 29.3628 26.3586L25.4839 9.77185C25.3462 9.1824 24.869 8.76006 24.3074 8.6633ZM5.18233 20.7664L5.04174 22.857L1.12296 26.8695C0.592562 27.2667 0.482011 28.0196 0.879211 28.55C1.11562 28.8644 1.47649 29.0305 1.84249 29.0305C2.0921 29.0305 2.34368 28.9522 2.55968 28.7914L7.36437 25.1984C7.52997 25.0748 7.64486 24.9017 7.72766 24.7133L7.74174 24.711L8.66985 22.4773L5.18233 20.7664Z" fill="#2B3990"/>
</svg>
