<svg width="36" height="37" viewBox="0 0 36 37" fill="none" xmlns="http://www.w3.org/2000/svg">
<mask id="mask0_401_28" style="mask-type:luminance" maskUnits="userSpaceOnUse" x="0" y="0" width="36" height="37">
<path d="M0 0.640625H36V36.6406H0V0.640625Z" fill="white"/>
</mask>
<g mask="url(#mask0_401_28)">
<path d="M13.68 2.80078C12.0894 2.80078 10.8 4.0902 10.8 5.68078C10.8 7.27134 12.0894 8.56077 13.68 8.56077C15.2706 8.56077 16.56 7.27134 16.56 5.68078C16.56 4.0902 15.2706 2.80078 13.68 2.80078ZM2.16 5.68078C1.36512 5.68078 0.72 6.3259 0.72 7.12077C0.72 7.91567 1.36512 8.56077 2.16 8.56077H5.61375L6.93562 9.88266L3.72797 13.0917C3.18293 13.6353 2.88281 14.3583 2.88281 15.128C2.88281 15.5902 2.97297 16.0464 3.20625 16.4287L4.99641 19.3608H1.8C0.80568 19.3608 0 20.1665 0 21.1608C0 22.1551 0.80568 22.9608 1.8 22.9608H8.25328H8.28284C8.61183 22.9608 8.94379 22.871 9.24189 22.6824L9.24328 22.6809C9.24474 22.6802 9.24537 22.681 9.24613 22.6795C9.24973 22.6767 9.25377 22.674 9.25737 22.6711C9.25876 22.6704 9.2609 22.6704 9.26015 22.6697L9.26154 22.6683C9.63455 22.4256 9.88882 22.068 10.0055 21.6713C10.0062 21.6698 10.0055 21.6699 10.0055 21.6684C10.0235 21.6065 10.0389 21.5441 10.0504 21.48C10.116 21.1186 10.072 20.7365 9.90562 20.3873L8.23219 16.7297L10.2263 14.7342L11.153 16.4442C11.4143 16.9266 11.9088 17.2001 12.42 17.2008H15.84C16.6349 17.2008 17.28 16.5557 17.28 15.7608C17.28 14.9659 16.6349 14.3208 15.84 14.3208H13.4915L12.3947 10.6631C12.165 9.89561 11.6774 9.21635 11.0222 8.75485L7.03971 5.94375C6.79705 5.77239 6.50735 5.68078 6.21001 5.68078H2.16ZM33.12 10.0008C31.5294 10.0008 30.24 11.2902 30.24 12.8808C30.24 14.4713 31.5294 15.7608 33.12 15.7608C34.7106 15.7608 36 14.4713 36 12.8808C36 11.2902 34.7106 10.0008 33.12 10.0008ZM20.0841 10.7222C19.4181 10.7561 18.8396 11.2584 18.7369 11.947C18.6188 12.734 19.16 13.4679 19.9463 13.5853L24.712 14.2997L26.3391 16.7606L25.2604 17.8392C25.2169 17.7977 25.1682 17.7618 25.1156 17.7324C22.7557 16.4169 19.44 16.4808 19.44 16.4808C19.1804 16.4771 18.9388 16.6135 18.8079 16.8378C18.6771 17.0621 18.6771 17.3395 18.8079 17.5637C18.9388 17.788 19.1804 17.9244 19.44 17.9208C19.44 17.9208 22.3758 17.9894 24.2044 18.8953L23.542 19.5576C22.8143 19.4384 22.089 19.3608 21.42 19.3608C18.5371 19.3608 16.3325 19.9206 14.8415 20.4886C13.3506 21.0566 12.5283 21.6642 12.5283 21.6642C12.2099 21.9026 12.145 22.3541 12.3834 22.6725C12.6219 22.991 13.0733 23.0558 13.3917 22.8173C13.3917 22.8173 14.0094 22.345 15.3534 21.833C16.6975 21.3209 18.7229 20.8008 21.42 20.8008C21.6951 20.8008 21.994 20.821 22.3045 20.8528C22.3709 20.8592 22.4412 20.8706 22.5085 20.8781C23.2863 20.9708 24.1279 21.1411 24.9398 21.338C25.137 21.3859 25.3313 21.4325 25.522 21.4828C26.096 21.6329 26.6295 21.7877 27.0858 21.9272C27.16 21.9504 27.2476 21.9752 27.3178 21.9975C27.6601 22.1045 27.9049 22.186 28.1067 22.2549C28.2574 22.3066 28.4748 22.3788 28.5567 22.4081L28.7592 22.4854L28.987 22.2576C29.0695 22.2032 29.1399 22.1323 29.1938 22.0495L30.8363 20.407C31.3806 19.8627 31.68 19.1397 31.68 18.3708C31.68 17.6018 31.3806 16.8782 30.8363 16.3346L26.6063 11.9822C26.3787 11.741 26.0807 11.5916 25.7653 11.5462L20.3737 10.7376C20.2762 10.7225 20.1792 10.7174 20.0841 10.7222ZM21.6408 22.2478C21.6171 22.3932 21.6 22.5403 21.6 22.6908C21.6 23.4597 21.8994 24.1834 22.4437 24.727C22.5856 24.8689 23.18 25.4741 23.8388 26.1473L25.9496 28.3059L23.5674 30.6881C22.8639 31.3916 22.8639 32.5307 23.5674 33.2335C23.9194 33.5848 24.3792 33.7608 24.84 33.7608C25.3008 33.7608 25.7606 33.5848 26.1126 33.2335L29.707 29.6405C30.0282 29.3237 30.2041 28.9121 30.2344 28.4916C30.2423 28.3893 30.2416 28.2865 30.2315 28.185C30.2042 27.9049 30.1122 27.631 29.9531 27.3862L27.6089 23.6035C27.2093 23.4681 26.6017 23.2693 25.8961 23.0662C24.5749 22.6854 22.918 22.2903 21.6408 22.2478ZM20.2936 23.7427L18.4697 26.4258L13.4888 31.4081C12.7853 32.1116 12.7853 33.2507 13.4888 33.9535C13.8387 34.3048 14.2992 34.4808 14.76 34.4808C15.2208 34.4808 15.6813 34.3048 16.0326 33.9535L21.1107 28.8769C21.1264 28.8617 21.1426 28.8449 21.1585 28.8291L22.822 27.1654C22.2093 26.5413 21.6006 25.9187 21.427 25.7451C20.8647 25.1835 20.4808 24.4944 20.2936 23.7427ZM2.49469 24.4008L1.96734 24.9281C1.2639 25.6316 1.2639 26.7707 1.96734 27.4735C2.31798 27.8255 2.7792 28.0008 3.24 28.0008C3.7008 28.0008 4.1613 27.8248 4.51266 27.4735L7.58533 24.4008H2.49469Z" fill="#2B3990"/>
</g>
</svg>
